<svg width="103" height="28" viewBox="0 0 103 28" fill="none" xmlns="http://www.w3.org/2000/svg">
<path d="M11.143 14.2088C12.2815 9.7998 13.4443 5.4398 14.5343 1.0553C14.6554 0.540923 14.8735 0.393956 15.3822 0.418451C17.3927 0.442945 19.4275 0.442945 21.4381 0.418451C21.8499 0.418451 21.9711 0.540922 21.9711 0.957327C21.9468 6.738 21.9468 12.5187 21.9711 18.2749C21.9711 18.7402 21.8015 18.8137 21.4139 18.7892C20.3481 18.7647 19.2822 18.7647 18.2164 18.7892C17.7561 18.8137 17.6108 18.6668 17.6108 18.1769C17.635 13.6944 17.6108 9.18744 17.6108 4.70497C17.6108 4.48452 17.6108 4.26407 17.6108 4.04362C17.5865 4.04362 17.5381 4.01913 17.5139 4.01913C17.4654 4.19059 17.417 4.36205 17.3443 4.53351C16.0362 9.06497 14.7281 13.5964 13.4443 18.1524C13.2989 18.6668 13.0809 18.8137 12.5722 18.7892C11.3368 18.7647 10.1014 18.7647 8.89016 18.7892C8.50258 18.7892 8.33301 18.6913 8.23612 18.2994C6.92803 13.7189 5.59572 9.13845 4.28763 4.5825C4.23918 4.41104 4.19073 4.23957 4.04539 4.06811C4.04539 4.28856 4.04539 4.48452 4.04539 4.70497C4.04539 9.18744 4.04539 13.6944 4.04539 18.1769C4.04539 18.6668 3.94849 18.8382 3.41557 18.8137C2.44661 18.7647 1.47766 18.7892 0.508701 18.8137C0.0968955 18.8382 0 18.6913 0 18.2994C0 12.4942 0 6.71351 0 0.908338C0 0.540923 0.0968955 0.418451 0.460254 0.418451C2.61618 0.442945 4.7721 0.442945 6.92803 0.418451C7.33983 0.418451 7.41251 0.614406 7.5094 0.932833C8.6237 5.21935 9.76222 9.50587 10.8765 13.8169C10.9734 13.9394 10.9492 14.0863 11.143 14.2088Z" fill="#333333"/>
<path d="M67.7783 16.512C67.7783 16.8794 67.7783 17.0998 67.7783 17.3203C67.7783 20.676 67.7783 24.0073 67.7783 27.363C67.7783 27.8039 67.7056 27.9998 67.1969 27.9998C66.0826 27.9509 64.9683 27.9753 63.8782 27.9998C63.4906 27.9998 63.418 27.8774 63.418 27.51C63.418 18.6675 63.418 9.80051 63.418 0.958038C63.418 0.566128 63.5149 0.419162 63.9267 0.443656C65.0652 0.468151 66.1795 0.468151 67.318 0.443656C67.7298 0.443656 67.8267 0.590623 67.8025 0.982533C67.7783 1.52141 67.8025 2.03579 67.8025 2.55017C67.9478 2.64815 68.0205 2.55017 68.069 2.47669C70.4187 -0.242186 73.9554 -0.462636 76.6927 0.811072C80.302 2.50118 81.8523 5.53849 81.9492 9.45759C82.0219 12.7153 80.9561 15.5077 78.3399 17.5407C75.6753 19.5983 70.9516 20.1616 68.069 16.8304C67.9963 16.7079 67.9478 16.6589 67.7783 16.512ZM77.5647 9.65354C77.5647 8.94321 77.5163 8.25737 77.2983 7.59602C76.7169 5.83242 75.5784 4.58321 73.7373 4.21579C71.7994 3.82388 70.128 4.36276 68.9168 5.97939C67.6087 7.74298 67.5118 9.72703 68.1174 11.7356C68.9895 14.6504 72.4293 15.9976 75.0454 14.4789C76.8622 13.4257 77.5405 11.6866 77.5647 9.65354Z" fill="#333333"/>
<path d="M36.8689 11.0744C34.7614 11.0744 32.6782 11.0744 30.5707 11.0744C30.1589 11.0744 30.0862 11.1478 30.1831 11.5643C30.9098 14.7485 34.5434 16.3652 37.3776 14.6995C37.8136 14.4546 38.177 14.1117 38.395 13.6708C38.5646 13.3523 38.7583 13.2544 39.0975 13.2544C40.3329 13.2789 41.5683 13.2789 42.7795 13.2544C43.2155 13.2544 43.3367 13.3278 43.1671 13.7932C42.3677 16.0222 40.9143 17.6389 38.7341 18.3982C35.0036 19.7209 31.4912 19.4759 28.4874 16.5856C26.5737 14.724 25.8228 12.3726 25.7986 9.72717C25.7743 6.17549 26.9855 3.21166 30.062 1.3256C34.7372 -1.51575 41.7863 0.149866 43.482 6.91032C43.7727 8.11054 43.7727 9.33526 43.7485 10.56C43.7485 10.9764 43.5789 11.0499 43.1913 11.0499C41.1081 11.0499 39.0006 11.0744 36.8689 11.0744ZM34.8341 7.93908C36.1664 7.93908 37.4987 7.91459 38.831 7.93908C39.3397 7.93908 39.5093 7.8656 39.3397 7.30223C38.7341 5.19571 37.1838 3.97099 34.931 3.922C32.5813 3.84852 30.8614 5.14672 30.2558 7.37571C30.1346 7.8656 30.2558 7.96358 30.716 7.96358C32.0968 7.93908 33.4533 7.93908 34.8341 7.93908Z" fill="#333333"/>
<path d="M103 9.60463C103 13.9646 100.675 17.4918 96.7745 18.6676C91.4937 20.2842 86.3825 17.7368 84.9291 12.6664C83.7421 8.55137 84.7595 3.94642 88.7564 1.4235C93.8435 -1.78526 101.958 0.590693 102.927 8.08598C102.976 8.57586 103 9.09025 103 9.60463ZM98.6398 9.55564C98.6398 8.99227 98.5913 8.28193 98.3491 7.59609C97.7435 5.808 96.6292 4.55878 94.7397 4.21586C92.8018 3.84845 91.1788 4.38732 89.9676 6.00395C88.6838 7.74305 88.5869 9.70261 89.1683 11.7111C90.1857 15.1404 94.4733 16.2671 97.041 13.8177C98.1795 12.6909 98.6156 11.2702 98.6398 9.55564Z" fill="#333333"/>
<path d="M52.7354 0.418537C55.0851 0.418537 57.459 0.418537 59.8087 0.418537C60.2448 0.418537 60.3659 0.541009 60.3417 0.957414C60.3174 1.96168 60.3174 2.96595 60.3417 3.94573C60.3417 4.33764 60.2448 4.46011 59.833 4.46011C58.3795 4.43562 56.9261 4.46011 55.4727 4.43562C55.0124 4.43562 54.8671 4.5336 54.8671 5.02348C54.8913 9.35899 54.8671 13.719 54.8913 18.0545C54.8913 18.6669 54.7217 18.7893 54.1404 18.7648C53.123 18.7158 52.0813 18.7158 51.0639 18.7648C50.6037 18.7893 50.5068 18.6424 50.5068 18.177C50.531 13.8415 50.5068 9.48146 50.531 5.14595C50.531 4.55809 50.4099 4.38663 49.8043 4.41112C48.3993 4.46011 46.9701 4.41112 45.5651 4.43562C45.1775 4.43562 45.0322 4.36213 45.0564 3.94573C45.0806 2.91696 45.0806 1.9127 45.0564 0.883931C45.0322 0.467526 45.2017 0.394043 45.5651 0.394043C47.9875 0.418537 50.3614 0.418537 52.7354 0.418537Z" fill="#333333"/>
</svg>
